<svg width="256px" height="256px" viewBox="231 102 938 937" version="1.1" xmlns="http://www.w3.org/2000/svg">
    <!-- Background path REMOVED for transparency -->
    <path d="M0 0 C7.875 6.75 7.875 6.75 10.82533497 9.70113647 C11.50187135 10.37542556 12.17840773 11.04971465 12.87544522 11.74443674 C13.59665937 12.46827791 14.31787352 13.19211907 15.06094265 13.93789482 C15.84735983 14.72315816 16.63377701 15.50842149 17.44402501 16.31748068 C20.07943556 18.95024369 22.7112632 21.58655907 25.34312439 24.22286987 C27.25048565 26.12979505 29.1580446 28.03652058 31.06584746 29.94300377 C35.2137088 34.08879504 39.35971457 38.23643468 43.50450325 42.38529778 C49.66763586 48.55447201 55.83364024 54.72076995 62.00023285 60.88648539 C72.37395902 71.25889838 82.74535803 81.63363535 93.11543083 92.00970078 C103.38248578 102.2826736 113.65057489 112.55461095 123.92004585 122.82516861 C124.55867054 123.46386204 125.19729523 124.10255546 125.85527218 124.76060324 C129.09855549 128.00422488 132.34185727 131.24782805 135.58516616 134.4914241 C158.55495337 157.46331148 181.52242145 180.43751626 204.48852539 203.41308594 C226.79919978 225.7329453 249.11092475 248.05175362 271.42407227 270.36914062 C272.11191136 271.05711124 272.79975045 271.74508186 273.50843315 272.45390007 C280.41602372 279.36280917 287.32363565 286.27169691 294.23126323 293.18056901 C308.30278253 307.2546245 322.37415928 321.3288225 336.44544983 335.40310669 C337.09241919 336.05021334 337.73938856 336.69732 338.40596305 337.36403594 C381.60636358 380.57363648 424.80344106 423.78655908 468 467 C471.03440121 465.64145939 473.13230078 464.11711362 475.47723693 461.7700094 C476.15250887 461.09897581 476.82778082 460.42794223 477.52351555 459.73657429 C478.25874228 458.99580769 478.99396901 458.25504109 479.75147533 457.49182701 C480.54088488 456.70442556 481.33029442 455.91702411 482.14362547 455.105762 C484.80969553 452.44401163 487.46852031 449.77513755 490.12748718 447.10629272 C492.04727336 445.18554776 493.96857059 443.26631683 495.88980228 441.34701788 C500.07746683 437.16196291 504.26139733 432.97320358 508.44293022 428.78202248 C514.66079288 422.54985319 520.88437576 416.32342014 527.1091826 410.09818776 C537.57951317 399.62683555 548.04524707 389.15090058 558.50845909 378.67243576 C568.87152993 368.29431717 579.23687562 357.91847881 589.60520363 347.54561234 C590.2494348 346.90109856 590.89366597 346.25658479 591.55741929 345.59254029 C594.82905566 342.31949944 598.10073823 339.04650477 601.3724421 335.77353139 C624.5575076 312.57937236 647.7383089 289.38095605 670.91625977 266.1796875 C672.31839255 264.77614714 673.72052544 263.37260687 675.12265841 261.96906669 C675.81738529 261.27364221 676.51211217 260.57821773 677.22789138 259.86171977 C680.74282659 256.34325564 684.25776413 252.82479384 687.77270508 249.30633545 C688.46973021 248.60861186 689.16675534 247.91088827 689.88490244 247.19202154 C706.08054304 230.98019552 722.2774697 214.76965466 738.47485352 198.55957031 C739.51574376 197.51786089 739.51574376 197.51786089 740.57766209 196.45510684 C756.41057423 180.60975655 772.24407912 164.76499888 788.07875538 148.92141151 C788.74364008 148.25615141 789.40852479 147.59089131 790.09355752 146.90547182 C796.07341908 140.92224438 802.05330442 134.93904071 808.03331599 128.95596321 C822.96713971 114.0144795 837.8994708 99.07150916 852.82817761 84.12491277 C863.22832047 73.7123167 873.63005132 63.30130955 884.03350433 52.89202069 C890.2226188 46.69930281 896.41027812 40.50513869 902.59594838 34.30898048 C906.71980558 30.17839495 910.84543743 26.04958782 914.97255579 21.92226073 C917.3292638 19.56532318 919.68485992 17.20730158 922.03883835 14.84763603 C924.56563259 12.31496703 927.09542141 9.78532945 929.62604809 7.25649071 C930.36829831 6.51104177 931.11054854 5.76559284 931.8752912 4.99755454 C932.54305259 4.33152799 933.21081398 3.66550144 933.89881057 2.97929227 C934.76760604 2.10959161 934.76760604 2.10959161 935.65395294 1.22232123 C937 0 937 0 938 0 C938 309.21 938 618.42 938 937 C930.125 930.25 930.125 930.25 926.59352207 926.7165699 C925.78885394 925.91389281 924.9841858 925.11121573 924.15513378 924.28421509 C923.29227841 923.41844688 922.42942304 922.55267866 921.54042053 921.66067505 C920.60747317 920.72858211 919.67452581 919.79648918 918.71330732 918.836151 C916.13871949 916.26378803 913.56724137 913.68833635 910.99628198 911.1123476 C908.21769163 908.32942397 905.43619657 905.54940615 902.65505981 902.76902771 C897.84187548 897.95636679 893.03052012 893.1418837 888.22041512 888.32614517 C881.26587538 881.3634657 874.30856392 874.40356122 867.35058086 867.44432293 C856.06078271 856.15233814 844.77321782 844.85812371 833.48706055 833.5625 C822.52599517 822.59225045 811.56387616 811.62305553 800.6003418 800.65527344 C799.92413287 799.97880178 799.24792393 799.30233013 798.55122382 798.60535933 C795.15875131 795.21158175 791.76625811 791.81782485 788.37375462 788.42407823 C760.24596147 760.28592457 732.12179395 732.1441493 704 704 C698.1979864 708.81967631 692.86300533 713.99877209 687.54042053 719.33932495 C686.60747317 720.27141789 685.67452581 721.20351082 684.71330732 722.163849 C682.13871949 724.73621197 679.56724137 727.31166365 676.99628198 729.8876524 C674.21769163 732.67057603 671.43619657 735.45059385 668.65505981 738.23097229 C663.84187548 743.04363321 659.03052012 747.8581163 654.22041512 752.67385483 C647.26587538 759.6365343 640.30856392 766.59643878 633.35058086 773.55567707 C622.06078271 784.84766186 610.77321782 796.14187629 599.48706055 807.4375 C588.52599517 818.40774955 577.56387616 829.37694447 566.6003418 840.34472656 C565.92413287 841.02119822 565.24792393 841.69766987 564.55122382 842.39464067 C561.15875131 845.78841825 557.76625811 849.18217515 554.37375462 852.57592177 C526.24596147 880.71407543 498.12179395 908.8558507 470 937 C466.65956995 935.5457508 464.46741689 933.71629695 461.90019608 931.14629173 C461.0875675 930.33764526 460.27493893 929.52899878 459.43768525 928.69584787 C458.55052756 927.8028645 457.66336987 926.90988112 456.74932861 925.98983765 C455.79347424 925.03485534 454.83718052 924.08031261 453.8804853 923.12617266 C451.25124583 920.50141057 448.6282922 917.87044401 446.00630689 915.23843813 C443.1783356 912.40184029 440.34459755 909.57101389 437.5115509 906.73948669 C432.60336497 901.83235011 427.69885794 896.9215612 422.79682159 892.00828171 C415.70927166 884.90448659 408.61621397 877.80621208 401.52179429 870.70927842 C390.01207918 859.19518467 378.50683868 847.67663046 367.00439453 836.15527344 C355.82997835 824.96250284 344.65346621 813.77183205 333.47412109 802.58398438 C332.78517601 801.89451384 332.09623092 801.20504331 331.38640872 800.49467973 C327.9302052 797.03586616 324.47396035 793.5770939 321.01769495 790.11834216 C292.33871939 761.41862883 263.66699781 732.71167711 235 704 C229.19856918 708.81849551 223.86675461 713.9975391 218.54714966 719.33932495 C217.14878697 720.73746435 217.14878697 720.73746435 215.72217453 722.163849 C213.14951658 724.73621293 210.57997289 727.31166777 208.01094103 729.8876524 C205.23439642 732.67059457 202.45492624 735.45061212 199.67579651 738.23097229 C194.86595204 743.04369783 190.05788574 747.85819382 185.25098038 752.67385483 C178.30047927 759.63692346 171.34672887 766.59673996 164.3920915 773.55567707 C153.10696673 784.84786198 141.82371287 796.1419142 130.54199219 807.4375 C129.53001909 808.45071482 129.53001909 808.45071482 128.49760209 809.48439862 C123.7066862 814.28121728 118.91583673 819.07810228 114.125 823.875 C108.64197549 829.3649572 103.15891724 834.85488071 97.67578125 840.34472656 C97.00013772 841.02119822 96.32449419 841.69766987 95.62837662 842.39464067 C84.38064276 853.65603916 73.13096127 864.91549009 61.87987697 876.17354119 C54.93789508 883.12001275 47.99770233 890.06826289 41.05977695 897.01878603 C36.31360152 901.77335903 31.5656847 906.52618821 26.81636639 911.27762179 C24.07269545 914.02264336 21.32987832 916.76850506 18.58921623 919.51653099 C15.62579378 922.48788625 12.65857931 925.45542475 9.69094849 928.4225769 C8.8153909 929.30172945 7.93983332 930.18088199 7.03774369 931.08667552 C6.24933874 931.87370613 5.46093378 932.66073673 4.64863777 933.47161674 C3.62054094 934.50109627 3.62054094 934.50109627 2.57167447 935.55137336 C1 937 1 937 0 937 C0 627.79 0 318.58 0 0 Z " fill="#000000" transform="translate(231,102)"/>
</svg>